<svg xmlns="http://www.w3.org/2000/svg" viewBox="0 0 512 512">
  <path d="M255 16C112.605 16 0 117.943 0 241c0 52.422 20.743 103.21 58.496 143.449 7.47 30.802-1.599 63.441-24.102 85.944C24.986 479.801 31.645 496 45 496c42.744 0 83.944-16.75 114.574-46.271C189.866 460.53 221.918 466 255 466c142.79 0 257-102.242 257-225 0-122.827-114.289-225-257-225zm0 420.2c-32.721 0-64.267-6.156-93.762-17.902a15 15 0 00-16.616 3.809c-18.118 19.799-41.671 33.605-67.327 39.951 14.136-27.089 17.749-59.022 9.144-89.275a14.986 14.986 0 00-3.666-6.345C48.742 331.385 29.8 286.837 29.8 241 29.8 133.477 130.935 45.8 255 45.8c125.168 0 227.2 87.677 227.2 195.2S380.168 436.2 255 436.2z"/>
  <path d="M135 196c-24.813 0-45 20.187-45 45s20.187 45 45 45 45-20.187 45-45-20.187-45-45-45zm0 60c-8.271 0-15-6.729-15-15s6.729-15 15-15 15 6.729 15 15-6.729 15-15 15zM255 196c-24.813 0-45 20.187-45 45s20.187 45 45 45 45-20.187 45-45-20.187-45-45-45zm0 60c-8.271 0-15-6.729-15-15s6.729-15 15-15 15 6.729 15 15-6.729 15-15 15zM377 196c-24.813 0-45 20.187-45 45s20.187 45 45 45 45-20.187 45-45-20.187-45-45-45zm0 60c-8.271 0-15-6.729-15-15s6.729-15 15-15 15 6.729 15 15-6.729 15-15 15z"/>
</svg>
